<svg width="200" height="200" viewBox="0 0 200 200" fill="none" xmlns="http://www.w3.org/2000/svg">
<path d="M200 100C200 155.228 155.228 200 100 200C44.7715 200 0 155.228 0 100C0 44.7715 44.7715 0 100 0C155.228 0 200 44.7715 200 100Z" fill="#1AB917" fill-opacity="0.8"/>
<path d="M123.719 100.127L140.302 84.5892C141.927 83.0667 141.927 80.6072 140.302 79.0847L122.219 62.1419C120.594 60.6194 117.969 60.6194 116.344 62.1419L99.7604 77.6793L83.1771 62.1419C82.3437 61.4001 81.3021 61.0098 80.2188 61.0098C79.1771 61.0098 78.0938 61.4001 77.3021 62.1419L59.2188 79.0847C57.5938 80.6072 57.5938 83.0667 59.2188 84.5892L75.8021 100.127L59.2188 115.664C57.5938 117.187 57.5938 119.646 59.2188 121.168L77.3021 138.111C78.9271 139.634 81.5521 139.634 83.1771 138.111L99.7604 122.574L116.344 138.111C117.177 138.892 118.219 139.243 119.302 139.243C120.385 139.243 121.427 138.853 122.26 138.111L140.344 121.168C141.969 119.646 141.969 117.187 140.344 115.664L123.719 100.127ZM99.8438 88.3369C102.135 88.3369 104.01 90.0936 104.01 92.2408C104.01 94.3879 102.135 96.1446 99.8438 96.1446C97.5521 96.1446 95.6771 94.3879 95.6771 92.2408C95.6771 90.0936 97.5521 88.3369 99.8438 88.3369ZM80.2188 95.9885L65.0938 81.8565L80.2188 67.6854L95.3021 81.8174L80.2188 95.9885ZM91.5104 103.952C89.2187 103.952 87.3438 102.196 87.3438 100.049C87.3438 97.9014 89.2187 96.1446 91.5104 96.1446C93.8021 96.1446 95.6771 97.9014 95.6771 100.049C95.6771 102.196 93.8021 103.952 91.5104 103.952ZM99.8438 111.76C97.5521 111.76 95.6771 110.003 95.6771 107.856C95.6771 105.709 97.5521 103.952 99.8438 103.952C102.135 103.952 104.01 105.709 104.01 107.856C104.01 110.003 102.135 111.76 99.8438 111.76ZM108.177 96.1446C110.469 96.1446 112.344 97.9014 112.344 100.049C112.344 102.196 110.469 103.952 108.177 103.952C105.885 103.952 104.01 102.196 104.01 100.049C104.01 97.9014 105.885 96.1446 108.177 96.1446ZM119.26 132.607L104.135 118.475L119.26 104.304L134.344 118.436L119.26 132.607Z" fill="white"/>
</svg>
