<svg width="200" height="200" viewBox="0 0 200 200" fill="none" xmlns="http://www.w3.org/2000/svg">
<path d="M0 100C0 44.7715 44.7715 0 100 0C155.228 0 200 44.7715 200 100C200 155.228 155.228 200 100 200C44.7715 200 0 155.228 0 100Z" fill="#1AB917" fill-opacity="0.8"/>
<path d="M94.0833 103.421H89.9167C86.4583 103.421 83.6667 100.805 83.6667 97.5648C83.6667 94.3246 86.4583 91.709 89.9167 91.709H94.0833V87.8051C94.0833 84.5649 96.875 81.9493 100.333 81.9493C103.792 81.9493 106.583 84.5649 106.583 87.8051V91.709H110.75C114.208 91.709 117 94.3246 117 97.5648C117 100.805 114.208 103.421 110.75 103.421H106.583V107.324C106.583 110.565 103.792 113.18 100.333 113.18C96.875 113.18 94.0833 110.565 94.0833 107.324V103.421ZM97.4167 61.493L72.4167 70.2767C69.1667 71.4479 67 74.3367 67 77.616V95.9642C67 115.679 81.2083 134.066 100.333 138.555C119.458 134.066 133.667 115.679 133.667 95.9642V77.616C133.667 74.3758 131.5 71.4478 128.25 70.3157L103.25 61.532C101.375 60.8293 99.2917 60.8293 97.4167 61.493Z" fill="white"/>
</svg>
