<svg width="200" height="200" viewBox="0 0 200 200" fill="none" xmlns="http://www.w3.org/2000/svg">
<path d="M200 100C200 155.228 155.228 200 100 200C44.7715 200 0 155.228 0 100C0 44.7715 44.7715 0 100 0C155.228 0 200 44.7715 200 100Z" fill="#1AB917" fill-opacity="0.8"/>
<path d="M143.5 80.5194C143.5 84.8136 139.75 88.3271 135.167 88.3271C130.583 88.3271 126.833 84.8136 126.833 80.5194C126.833 77.4744 130.958 70.9939 133.417 67.4024C134.25 66.1922 136.083 66.1922 136.917 67.4024C139.375 70.9939 143.5 77.4744 143.5 80.5194ZM138.75 93.7145C139.083 95.7835 139.333 97.8916 139.333 100.039C139.333 121.588 120.667 139.078 97.625 139.078C74.625 139.078 56 121.588 56 100.039C56 78.4894 74.625 61 97.625 61C107.833 61 117.167 64.4354 124.417 70.1351C122.292 73.8438 120.583 77.6695 120.583 80.5194C120.583 88.0539 127.125 94.1829 135.167 94.1829C136.417 94.1829 137.583 93.9877 138.75 93.7145ZM106.125 92.3481L110.542 96.4862C111.75 97.6184 113.75 97.6184 114.958 96.4862C116.167 95.3541 116.167 93.4802 114.958 92.3481L112.75 90.2791L114.958 88.21C116.167 87.0779 116.167 85.204 114.958 84.0719C113.75 82.9398 111.75 82.9398 110.542 84.0719L106.125 88.21C104.917 89.3421 104.917 91.216 106.125 92.3481ZM82.5833 90.2791L80.375 92.3481C79.1667 93.4802 79.1667 95.3541 80.375 96.4862C81.5833 97.6184 83.5833 97.6184 84.7917 96.4862L89.2083 92.3481C90.4167 91.216 90.4167 89.3421 89.2083 88.21L84.7917 84.0719C83.5833 82.9398 81.5833 82.9398 80.375 84.0719C79.1667 85.204 79.1667 87.0779 80.375 88.21L82.5833 90.2791ZM116.292 114.873C112.125 109.447 105.375 105.895 97.6667 105.895C94.0417 105.895 90.625 106.675 87.5417 108.081L72.625 100.039C72.625 98.0087 71.5417 96.0568 69.5417 95.0028C66.2083 93.207 61.875 94.5733 60.5 98.1259C59.625 100.351 60.375 103.006 62.3333 104.528C64.5 106.246 67.3333 106.285 69.5 105.153L81.875 111.867C80.8333 112.804 79.875 113.819 79.0417 114.913C77.5417 116.825 79.0417 119.558 81.625 119.558C82.5833 119.558 83.5417 119.168 84.125 118.387C87.125 114.405 92.0417 111.75 97.6667 111.75C103.292 111.75 108.208 114.405 111.208 118.387C111.792 119.129 112.708 119.558 113.708 119.558C116.292 119.558 117.792 116.825 116.292 114.873Z" fill="white"/>
</svg>
