<svg width="200" height="200" viewBox="0 0 200 200" fill="none" xmlns="http://www.w3.org/2000/svg">
<path d="M0 100C0 44.7715 44.7715 0 100 0C155.228 0 200 44.7715 200 100C200 155.228 155.228 200 100 200C44.7715 200 0 155.228 0 100Z" fill="#1AB917" fill-opacity="0.8"/>
<path d="M80.8333 140.029C83.125 140.029 85 138.273 85 136.126V118.558H89.1667C93.75 118.558 97.5 115.045 97.5 110.75V81.4713C99.7917 81.4713 101.667 79.7146 101.667 77.5674C101.667 75.4203 99.7917 73.6636 97.5 73.6636H85V67.8077H87.0833C89.375 67.8077 91.25 66.051 91.25 63.9039C91.25 61.7567 89.375 60 87.0833 60H74.5833C72.2917 60 70.4167 61.7567 70.4167 63.9039C70.4167 66.051 72.2917 67.8077 74.5833 67.8077H76.6667V73.6636H64.1667C61.875 73.6636 60 75.4203 60 77.5674C60 79.7146 61.875 81.4713 64.1667 81.4713V110.75C64.1667 115.045 67.9167 118.558 72.5 118.558H76.6667V136.126C76.6667 138.273 78.5417 140.029 80.8333 140.029ZM89.1667 87.3271H81.875C80.1667 87.3271 78.75 88.6544 78.75 90.255C78.75 91.8556 80.1667 93.1829 81.875 93.1829H89.1667V99.0387H81.875C80.1667 99.0387 78.75 100.366 78.75 101.967C78.75 103.567 80.1667 104.895 81.875 104.895H89.1667V110.75H72.5V81.4713H89.1667V87.3271ZM132.917 93.1829V91.231C135.208 91.231 137.083 89.4743 137.083 87.3271C137.083 85.18 135.208 83.4232 132.917 83.4232H112.083C109.792 83.4232 107.917 85.18 107.917 87.3271C107.917 89.4743 109.792 91.231 112.083 91.231V93.1829C112.083 95.1349 105.833 97.7114 105.833 104.895V130.27C105.833 134.564 109.583 138.077 114.167 138.077H130.833C135.417 138.077 139.167 134.564 139.167 130.27V104.895C139.167 97.7114 132.917 95.1349 132.917 93.1829ZM120.417 93.1829V91.231H124.583V93.1829C124.583 99.4291 130.833 100.991 130.833 104.895V106.846H114.167C114.167 106.027 114.167 105.324 114.167 104.895C114.167 100.991 120.417 99.4291 120.417 93.1829ZM114.167 130.27C114.167 130.27 114.167 127.81 114.167 124.414H130.833V130.27H114.167Z" fill="white"/>
</svg>
