<svg width="200" height="200" viewBox="0 0 200 200" fill="none" xmlns="http://www.w3.org/2000/svg">
<path d="M0 100C0 44.7715 44.7715 0 100 0C155.228 0 200 44.7715 200 100C200 155.228 155.228 200 100 200C44.7715 200 0 155.228 0 100Z" fill="#1AB917" fill-opacity="0.8"/>
<path d="M79.3333 128.276C74.75 128.276 71 131.79 71 136.084H129.333C129.333 131.79 125.583 128.276 121 128.276H104.333V120.468H116.833C121.417 120.468 125.167 116.955 125.167 112.661H91.8333C84.9167 112.661 79.3333 107.429 79.3333 100.949C79.3333 96.6938 81.7917 92.9851 85.4167 90.9551C84.2083 89.3545 83.5 87.4416 83.5 85.3335C83.5 84.5137 83.6667 83.6939 83.875 82.9131C76.3333 85.841 71 92.8289 71 100.949C71 111.724 80.3333 120.468 91.8333 120.468V128.276H79.3333Z" fill="white"/>
<path d="M94.1667 75.6128C99.7917 75.73 104.333 80.0242 104.333 85.3335C104.333 88.2614 102.958 90.838 100.792 92.6337L101.833 95.2884C102.625 97.3184 105 98.3724 107.167 97.6307C107.958 99.6607 110.333 100.715 112.5 99.973C114.667 99.2313 115.792 97.0061 115 94.9761C117.167 94.2343 118.292 92.0091 117.5 89.9791L108.917 67.9222C108.125 65.8922 105.75 64.8382 103.583 65.5799C102.792 63.5499 100.417 62.4958 98.25 63.2376C96.0833 63.9793 94.9583 66.2045 95.75 68.2345C93.5833 68.9763 92.4583 71.2015 93.25 73.2315L94.1667 75.6128Z" fill="white"/>
<path d="M93.9167 91.1893C97.3684 91.1893 100.167 88.5676 100.167 85.3335C100.167 82.0994 97.3684 79.4777 93.9167 79.4777C90.4649 79.4777 87.6667 82.0994 87.6667 85.3335C87.6667 88.5676 90.4649 91.1893 93.9167 91.1893Z" fill="white"/>
</svg>
