<svg width="200" height="200" viewBox="0 0 200 200" fill="none" xmlns="http://www.w3.org/2000/svg">
<path d="M0 100C0 44.7715 44.7715 0 100 0C155.228 0 200 44.7715 200 100C200 155.228 155.228 200 100 200C44.7715 200 0 155.228 0 100Z" fill="#1AB917" fill-opacity="0.8"/>
<path d="M83.6667 76.6155C83.6667 67.9879 91.125 61 100.333 61C109.542 61 117 67.9879 117 76.6155C117 85.2431 109.542 92.231 100.333 92.231C91.125 92.231 83.6667 85.2431 83.6667 76.6155ZM121.167 139.078H125.333C129.917 139.078 133.667 135.564 133.667 131.27V112.609C133.667 108.237 131.125 104.216 126.958 102.225C125.167 101.366 123.208 100.546 121.167 99.8045V139.078ZM101.75 119.558L112.833 97.4232C108.958 96.6033 104.792 96.1349 100.333 96.1349C89.7917 96.1349 80.7083 98.8676 73.7083 102.225C69.5417 104.216 67 108.237 67 112.609V139.078H76.75C75.8333 137.321 75.3333 135.33 75.3333 133.222C75.3333 125.687 81.875 119.558 89.9167 119.558H101.75ZM92 139.078L97.875 127.366H89.9167C86.4583 127.366 83.6667 129.981 83.6667 133.222C83.6667 136.462 86.4583 139.078 89.9167 139.078H92Z" fill="white"/>
</svg>
