<svg width="22" height="22" viewBox="0 0 22 22" fill="none" xmlns="http://www.w3.org/2000/svg">
<path d="M16.5 5.5H16.51M6 1H16C18.7614 1 21 3.23858 21 6V16C21 18.7614 18.7614 21 16 21H6C3.23858 21 1 18.7614 1 16V6C1 3.23858 3.23858 1 6 1ZM15.0036 10.3664C15.127 11.1986 14.9849 12.0486 14.5974 12.7954C14.2099 13.5422 13.5968 14.1478 12.8452 14.5261C12.0937 14.9043 11.2421 15.036 10.4114 14.9023C9.58074 14.7687 8.81337 14.3765 8.21845 13.7816C7.62353 13.1866 7.23135 12.4193 7.09768 11.5886C6.96402 10.7579 7.09568 9.90629 7.47394 9.15477C7.8522 8.40325 8.4578 7.79014 9.2046 7.40264C9.9514 7.01514 10.8014 6.87298 11.6336 6.9964C12.4825 7.12228 13.2685 7.51786 13.8753 8.1247C14.4822 8.73154 14.8777 9.51747 15.0036 10.3664Z" stroke="white" stroke-width="2" stroke-linecap="round" stroke-linejoin="round"/>
</svg>
