<svg width="49" height="35" viewBox="0 0 49 35" fill="none" xmlns="http://www.w3.org/2000/svg">
<path d="M46.6667 34.8333H2.33333C1.91341 34.8333 1.51068 34.6665 1.21375 34.3696C0.916815 34.0727 0.75 33.6699 0.75 33.25C0.75 32.8301 0.916815 32.4273 1.21375 32.1304C1.51068 31.8335 1.91341 31.6667 2.33333 31.6667H46.6667C47.0866 31.6667 47.4893 31.8335 47.7863 32.1304C48.0832 32.4273 48.25 32.8301 48.25 33.25C48.25 33.6699 48.0832 34.0727 47.7863 34.3696C47.4893 34.6665 47.0866 34.8333 46.6667 34.8333Z" fill="#A4A4A4"/>
<path d="M46.6667 19H2.33333C1.91341 19 1.51068 18.8332 1.21375 18.5363C0.916815 18.2393 0.75 17.8366 0.75 17.4167C0.75 16.9967 0.916815 16.594 1.21375 16.2971C1.51068 16.0001 1.91341 15.8333 2.33333 15.8333H46.6667C47.0866 15.8333 47.4893 16.0001 47.7863 16.2971C48.0832 16.594 48.25 16.9967 48.25 17.4167C48.25 17.8366 48.0832 18.2393 47.7863 18.5363C47.4893 18.8332 47.0866 19 46.6667 19Z" fill="#A4A4A4"/>
<path d="M46.6667 3.16667H2.33333C1.91341 3.16667 1.51068 2.99985 1.21375 2.70292C0.916815 2.40599 0.75 2.00326 0.75 1.58333C0.75 1.16341 0.916815 0.760681 1.21375 0.463748C1.51068 0.166815 1.91341 0 2.33333 0H46.6667C47.0866 0 47.4893 0.166815 47.7863 0.463748C48.0832 0.760681 48.25 1.16341 48.25 1.58333C48.25 2.00326 48.0832 2.40599 47.7863 2.70292C47.4893 2.99985 47.0866 3.16667 46.6667 3.16667Z" fill="#A4A4A4"/>
</svg>
