<svg width="25" height="25" viewBox="0 0 25 25" fill="none" xmlns="http://www.w3.org/2000/svg">
<path d="M23.0556 25L14.3056 16.25C13.6111 16.8056 12.8125 17.2454 11.9097 17.5694C11.0069 17.8935 10.0463 18.0556 9.02778 18.0556C6.50463 18.0556 4.36944 17.1819 2.62222 15.4347C0.874074 13.6866 0 11.5509 0 9.02778C0 6.50463 0.874074 4.36898 2.62222 2.62083C4.36944 0.873611 6.50463 0 9.02778 0C11.5509 0 13.6866 0.873611 15.4347 2.62083C17.1819 4.36898 18.0556 6.50463 18.0556 9.02778C18.0556 10.0463 17.8935 11.0069 17.5694 11.9097C17.2454 12.8125 16.8056 13.6111 16.25 14.3056L25 23.0556L23.0556 25ZM9.02778 15.2778C10.7639 15.2778 12.2398 14.6704 13.4556 13.4556C14.6704 12.2398 15.2778 10.7639 15.2778 9.02778C15.2778 7.29167 14.6704 5.81574 13.4556 4.6C12.2398 3.38518 10.7639 2.77778 9.02778 2.77778C7.29167 2.77778 5.81574 3.38518 4.6 4.6C3.38519 5.81574 2.77778 7.29167 2.77778 9.02778C2.77778 10.7639 3.38519 12.2398 4.6 13.4556C5.81574 14.6704 7.29167 15.2778 9.02778 15.2778Z" fill="#A4A4A4"/>
</svg>
