<svg width="60" height="60" viewBox="0 0 60 60" fill="none" xmlns="http://www.w3.org/2000/svg">
<path d="M30 51.6C22.5 51.6 15.87 47.76 12 42C12.09 36 24 32.7 30 32.7C36 32.7 47.91 36 48 42C46.0167 44.9532 43.3376 47.3735 40.1987 49.0475C37.0598 50.7216 33.5574 51.5982 30 51.6ZM30 9C32.3869 9 34.6761 9.94821 36.364 11.636C38.0518 13.3239 39 15.6131 39 18C39 20.3869 38.0518 22.6761 36.364 24.364C34.6761 26.0518 32.3869 27 30 27C27.6131 27 25.3239 26.0518 23.636 24.364C21.9482 22.6761 21 20.3869 21 18C21 15.6131 21.9482 13.3239 23.636 11.636C25.3239 9.94821 27.6131 9 30 9ZM30 0C26.0603 0 22.1593 0.775973 18.5195 2.28361C14.8797 3.79126 11.5726 6.00104 8.7868 8.7868C3.16071 14.4129 0 22.0435 0 30C0 37.9565 3.16071 45.5871 8.7868 51.2132C11.5726 53.999 14.8797 56.2087 18.5195 57.7164C22.1593 59.224 26.0603 60 30 60C37.9565 60 45.5871 56.8393 51.2132 51.2132C56.8393 45.5871 60 37.9565 60 30C60 13.41 46.5 0 30 0Z" fill="#A4A4A4"/>
</svg>
